<?xml version="1.0" encoding="UTF-8" standalone="no"?>
<!DOCTYPE svg PUBLIC "-//W3C//DTD SVG 1.1//EN" "http://www.w3.org/Graphics/SVG/1.1/DTD/svg11.dtd">
<svg xmlns="http://www.w3.org/2000/svg" version="1.1" viewBox="0.00 0.00 739.00 412.00">
<path stroke="#65772d" stroke-width="2.00" fill="none" stroke-linecap="butt" vector-effect="non-scaling-stroke" d="
  M 430.93 165.57
  L 352.06 267.06
  Q 351.67 267.57 351.27 267.06
  L 272.04 165.31"
/>
<path fill="#a6ce39" d="
  M 345.78 36.28
  L 349.97 1.50
  Q 350.17 -0.15 350.40 1.50
  L 355.16 36.37
  Q 355.23 36.86 355.62 37.18
  Q 359.34 40.23 356.61 44.29
  A 1.41 1.36 -31.9 0 0 356.38 45.20
  C 356.51 46.37 356.48 47.50 357.23 48.47
  C 360.19 52.27 362.86 56.15 366.44 59.36
  Q 373.97 66.10 381.72 72.77
  Q 382.77 73.66 381.46 73.22
  Q 359.71 65.88 336.53 69.06
  C 331.79 69.71 326.25 71.58 321.10 72.77
  Q 320.34 72.94 320.92 72.42
  C 326.49 67.31 344.67 52.69 344.65 45.29
  A 1.42 1.33 28.5 0 0 344.38 44.48
  Q 341.26 40.24 345.30 37.12
  Q 345.71 36.80 345.78 36.28
  Z"
/>
<path fill="#a6ce39" d="
  M 276.57 113.50
  C 292.39 78.85 334.09 66.01 369.77 72.40
  C 397.36 77.34 425.88 96.24 430.87 125.98
  Q 431.61 130.37 431.29 139.05
  Q 431.05 145.33 431.09 151.62
  Q 431.09 152.19 430.52 152.19
  L 272.71 152.19
  Q 272.09 152.19 272.09 151.57
  C 271.99 138.37 270.73 126.29 276.57 113.50
  Z"
/>
<rect fill="#a6ce39" x="272.05" y="154.98" width="159.06" height="3.14" rx="0.29"/>
<path fill="#a6ce39" d="
  M 430.93 165.57
  L 352.06 267.06
  Q 351.67 267.57 351.27 267.06
  L 272.04 165.31
  L 272.09 161.52
  Q 272.10 160.93 272.70 160.93
  L 430.54 160.93
  Q 431.09 160.93 431.07 161.48
  L 430.93 165.57
  Z"
/>
<path fill="#231f20" d="
  M 272.04 165.31
  L 351.27 267.06
  Q 351.67 267.57 352.06 267.06
  L 430.93 165.57
  L 432.98 163.26
  Q 433.37 162.82 433.84 163.18
  L 469.31 190.65
  A 0.87 0.85 19.1 0 1 469.65 191.33
  L 469.06 333.97
  Q 469.06 334.50 468.53 334.50
  L 416.77 334.50
  A 0.48 0.48 0.0 0 1 416.29 334.02
  L 416.29 270.88
  Q 416.29 269.97 415.80 270.74
  L 375.49 334.24
  A 0.56 0.55 15.5 0 1 375.02 334.50
  L 328.22 334.50
  Q 327.69 334.50 327.38 334.07
  L 287.46 279.45
  A 0.25 0.25 0.0 0 0 287.01 279.59
  L 286.99 334.00
  Q 286.99 334.50 286.50 334.50
  L 234.81 334.50
  Q 234.12 334.50 234.12 333.81
  L 234.56 189.72
  A 1.20 1.18 -18.8 0 1 235.04 188.77
  L 269.36 163.14
  Q 269.77 162.83 270.13 163.22
  L 272.04 165.31
  Z"
/>
<path fill="#231f20" d="
  M 144.47 322.86
  L 143.01 346.67
  A 0.34 0.34 0.0 0 1 142.70 346.99
  L 108.84 350.50
  A 0.34 0.34 0.0 0 1 108.46 350.16
  L 108.46 297.12
  A 0.34 0.34 0.0 0 1 108.56 296.88
  L 204.90 200.46
  A 0.34 0.34 0.0 0 1 205.48 200.71
  L 205.01 342.50
  A 0.34 0.34 0.0 0 1 204.70 342.84
  L 169.61 345.75
  A 0.34 0.34 0.0 0 1 169.24 345.41
  L 169.40 322.88
  A 0.34 0.34 0.0 0 0 169.06 322.54
  L 144.81 322.54
  A 0.34 0.34 0.0 0 0 144.47 322.86
  Z
  M 172.96 271.60
  A 0.30 0.30 0.0 0 0 172.45 271.38
  L 146.07 296.33
  A 0.30 0.30 0.0 0 0 146.28 296.85
  L 172.23 297.28
  A 0.30 0.30 0.0 0 0 172.53 296.98
  L 172.96 271.60
  Z"
/>
<path fill="#231f20" d="
  M 532.72 239.39
  L 531.98 340.58
  A 0.30 0.30 0.0 0 1 531.68 340.88
  L 497.10 340.88
  A 0.30 0.30 0.0 0 1 496.80 340.58
  L 496.80 212.42
  A 0.30 0.30 0.0 0 1 497.28 212.18
  L 532.60 239.15
  A 0.30 0.30 0.0 0 1 532.72 239.39
  Z"
/>
<path fill="#231f20" d="
  M 582.80 295.63
  L 582.37 323.77
  A 0.34 0.34 0.0 0 0 582.60 324.09
  L 613.25 335.50
  A 0.34 0.34 0.0 0 1 613.47 335.85
  L 611.60 355.09
  A 0.34 0.34 0.0 0 1 611.20 355.39
  L 552.75 346.13
  A 0.34 0.34 0.0 0 1 552.46 345.79
  L 552.46 253.19
  A 0.34 0.34 0.0 0 1 552.97 252.89
  L 616.79 290.62
  A 0.34 0.34 0.0 0 1 616.96 290.91
  L 616.96 308.30
  A 0.34 0.34 0.0 0 1 616.49 308.61
  L 583.27 295.32
  A 0.34 0.34 0.0 0 0 582.80 295.63
  Z"
/>
<path fill="#a6ce39" d="
  M 736.57 410.90
  Q 737.07 411.11 737.57 411.31
  Q 737.86 411.42 737.56 411.49
  Q 737.37 411.54 737.25 411.50
  C 675.07 395.26 612.13 385.88 547.98 379.97
  Q 402.21 366.54 255.99 373.88
  C 171.19 378.14 85.27 387.72 2.72 407.21
  Q -1.00 408.09 2.57 406.72
  C 62.60 383.72 128.77 371.43 191.02 364.36
  Q 323.37 349.33 456.39 357.00
  C 526.35 361.03 594.89 369.86 664.24 386.80
  Q 701.40 395.89 736.57 410.90
  Z"
/>
</svg>
